<svg xmlns="http://www.w3.org/2000/svg" viewBox="0 0 945.11 217.97"><defs><style>.cls-1{font-size:200px;font-family:LeelawadeeUI-Semilight, Leelawadee UI;font-weight:300;}.cls-1,.cls-4{fill:#3c3c3b;}.cls-2{letter-spacing:-0.01em;}.cls-3{fill:#fff;}</style></defs><g id="Layer_2" data-name="Layer 2"><g id="Layer_1-2" data-name="Layer 1"><text class="cls-1" transform="translate(223.39 170.02)">AniMa<tspan class="cls-2" x="555.27" y="0">t</tspan><tspan x="617.29" y="0">e</tspan></text><path class="cls-3" d="M131.76,12.32c-.57-1-13.3,1.74-14.93,2-3.7.7-7.38,1.48-11.08,2.2l0,.72-.08,2.07-.12,3.29L105.38,27l-.2,5.33L105,38.51l-.25,6.85-.27,7.4-.28,7.84-.29,8.14-.3,8.3-.31,8.34-.3,8.24-.29,8-.27,7.66-.26,7.17L101.9,123l-.21,5.8-.18,4.91-.14,3.9-.1,2.75c0,.5,0,1,0,1.52a.26.26,0,0,0,0,.15c0,.05.87,1.25.91,1.3l2.37,2.48c1.91,2,2.19,1.72,4.1,3.73.53.57,2.73,2.64,3.27,3.21.28.3.7,1.54,1.12,1.56a11.94,11.94,0,0,0,1.67-.16l1.89-.16,5.37-.46,7-.61,8-.68,8.4-.73,8.22-.71,7.42-.64,6-.52,4-.34a6.37,6.37,0,0,0,1.45-.13l5.39-1.93v-57Z"/><path class="cls-4" d="M23.12,76.22C36.91,59.46,50.21,40.68,69.77,30.37c8.92-4.7,18.43-8.1,28-11.31,6.71-2.26,13.62-6.32,17.76,2.05,2.11,4.26,2.83,9.14,3.4,13.8,2.16,17.38,3.25,36.18-5.71,51.22-1.88,3.14-4.2,6.15-4.92,9.73-1.5,7.47,4.26,14.29,6.1,21.68,1.45,5.86.29,11.8-1.52,17.44-1.41,4.39-2.76,10.2-8.79,9.34-3.54-.5-4.34-6.63-5.66-9.33a60.94,60.94,0,0,0-7.51-11.8c-1.7-2.09-6.08-5.51-5.42-8.6Q81,135.29,75,155.62c-1.74,5.88-3.73,11.65-5.65,17.47-1.74,5.3-2.7,11.2-6.8,15.31-1.87,1.88-5.74,5.71-8.62,5.59-3.74-.16-4.85-6-5.74-9-2.31-8-4.25-16.34-9.1-23.1a62.26,62.26,0,0,0-8-8.61L12.49,135.65C7.67,131.09.24,125.69,0,118.4a18.2,18.2,0,0,1,1.58-7C6.63,98.33,14.26,87,23.12,76.22Z"/><path class="cls-4" d="M201.79,92.12c-.8-12-1-26.22-7.14-36.85-4.82-8.3-10.34-16.2-15.93-24-4.14-5.76-7.83-12.3-14.54-15.45-9.11-4.28-22.62-3-32.48-3.65h-.08c-1.6,7.36.78,16.8,1.66,24.24,1.43,12.06,1.12,24.2,10.78,32.67,11.81,10.36,28.83,26.6,30.6,42.9,1.28,11.68,2.42,23.68.14,35.29a4.84,4.84,0,0,1,1.47,3.67c0,3.74-.11,6.35,2.42,9.23,1.11,1.26,1.18,2.34,2.87,3.66,1.68.71,2.63-.3,3.8-.87a17.09,17.09,0,0,0,5.18-4.37c5.82-6.71,9.9-14.55,10.72-23.43A270.09,270.09,0,0,0,201.79,92.12Z"/><path class="cls-4" d="M112.84,154.43c4.11,6.74,15.42,1.68,21.31,1.18,9.79-.83,18.5,3,28-1.9a17.58,17.58,0,0,1,3.61-1.66,21.33,21.33,0,0,1,3.92-.35,15.34,15.34,0,0,0,9.91-4.73c-5.21.37-10.58.72-15.56-.87-6.3-2-12.17-7.1-18.63-5.71-5.32,1.15-8.68,6.27-13.12,9.43-3.45,2.45-7.06,3-11.18,2.75-1.41-.07-10.47-2.16-8.37,1.6Z"/><path class="cls-4" d="M131.38,105.32a9.1,9.1,0,0,1,2.14-1.59,41.3,41.3,0,0,1,25-4.46,9.12,9.12,0,0,1,3,.82,7,7,0,0,1,1.93,1.62c3.93,4.55,3.69,11.25,3.24,17.24a4.86,4.86,0,0,1-.3,1.57,4.51,4.51,0,0,1-1.49,1.7,31.08,31.08,0,0,1-21.34,6.55,10.17,10.17,0,0,1-6-2.12,22,22,0,0,1-7.75-8.16C127.71,114.25,128.07,108.65,131.38,105.32Z"/><path class="cls-3" d="M158.5,102.47a15.9,15.9,0,0,0-3-.45,11.63,11.63,0,0,0-8.07,2.17c1.17,2.79,4.86,3.35,7.54,3.27,2.53-.07,5.34-.71,6.71-2.83A5.06,5.06,0,0,0,158.5,102.47Z"/><path class="cls-3" d="M156,56.24c0,1.16-1.66,2.1-3.07,2.1a1.9,1.9,0,0,1-2-2.1,2.59,2.59,0,0,1,5.09,0Z"/><path class="cls-3" d="M95.85,69.72c0,1.37-2,2.49-3.63,2.49a2.25,2.25,0,0,1-2.39-2.49,3.07,3.07,0,0,1,6,0Z"/><path class="cls-3" d="M99.65,71.2c1,2-.35,4.77-3.08,6.17s-5.78.91-6.81-1.09,3.09.57,5.8-.88C99.44,73.32,98.62,69.2,99.65,71.2Z"/><path class="cls-3" d="M159.63,58.28c.86,1.67-.29,4-2.57,5.14s-4.81.76-5.67-.91,2.58.48,4.83-.73C159.46,60,158.77,56.61,159.63,58.28Z"/></g></g></svg>