<svg xmlns="http://www.w3.org/2000/svg" viewBox="0 0 340.16 340.16"><defs><style>.cls-1{fill:#720429;}.cls-2{fill:#fff;}</style></defs><g id="Layer_2" data-name="Layer 2"><g id="Layer_1-2" data-name="Layer 1"><rect class="cls-1" width="340.16" height="340.16"/><path class="cls-2" d="M245,255.45H90.82a24.06,24.06,0,0,1-24.06-24.06v-124A24.06,24.06,0,0,1,90.82,83.38H245a24.06,24.06,0,0,1,24.06,24.05v124A24.06,24.06,0,0,1,245,255.45Zm13-25.55V135.65a15.18,15.18,0,0,0-15.18-15.18H93a15.18,15.18,0,0,0-15.18,15.18V229.9A15.18,15.18,0,0,0,93,245.08H242.8A15.18,15.18,0,0,0,258,229.9Z"/><rect class="cls-2" x="89.36" y="130.19" width="72.8" height="47.32" rx="8.78"/><rect class="cls-1" x="100.66" y="70.5" width="25.78" height="32.31" rx="6"/><rect class="cls-1" x="211.39" y="70.5" width="25.78" height="32.31" rx="6"/><rect class="cls-2" x="218.3" y="75.58" width="11.95" height="21.24" rx="2.3"/><rect class="cls-2" x="107.58" y="75.58" width="11.95" height="21.24" rx="2.3"/><rect class="cls-2" x="89.36" y="187.84" width="72.8" height="47.6" rx="8.78"/><rect class="cls-2" x="173.99" y="130.19" width="72.8" height="47.32" rx="8.78"/><rect class="cls-2" x="173.99" y="187.84" width="72.8" height="47.6" rx="8.78"/></g></g></svg>