<svg xmlns="http://www.w3.org/2000/svg" viewBox="0 0 340.16 340.16"><defs><style>.cls-1{fill:#720429;}.cls-2{fill:#fff;}</style></defs><g id="Layer_2" data-name="Layer 2"><g id="Layer_1-2" data-name="Layer 1"><rect class="cls-1" width="340.16" height="340.16"/><path class="cls-2" d="M84.45,142.37c14.24-17.3,28-36.7,48.17-47.34,9.21-4.86,19-8.37,28.87-11.68,6.93-2.34,14.07-6.53,18.35,2.12,2.17,4.39,2.91,9.43,3.51,14.25,2.22,17.94,3.35,37.35-5.91,52.88-1.93,3.24-4.33,6.35-5.07,10.05-1.55,7.71,4.4,14.75,6.29,22.39,1.5,6.05.31,12.19-1.57,18-1.45,4.54-2.84,10.53-9.08,9.65-3.65-.53-4.47-6.85-5.83-9.65a63.74,63.74,0,0,0-7.76-12.17c-1.75-2.17-6.28-5.7-5.59-8.89q-4.62,21.38-10.82,42.37c-1.8,6.07-3.86,12-5.83,18-1.8,5.46-2.79,11.55-7,15.8-1.93,1.94-5.92,5.9-8.89,5.77-3.87-.17-5-6.16-5.93-9.33-2.39-8.25-4.39-16.87-9.4-23.85a64,64,0,0,0-8.29-8.9L73.47,203.74c-5-4.71-12.65-10.28-12.89-17.81a18.8,18.8,0,0,1,1.64-7.22C67.42,165.2,75.3,153.5,84.45,142.37Z"/><path class="cls-2" d="M269,158.79c-.83-12.36-1-27.08-7.37-38-5-8.57-10.68-16.73-16.45-24.78C240.85,90,237,83.26,230.11,80c-9.4-4.42-23.35-3.11-33.54-3.77h-.08c-1.65,7.6.8,17.35,1.71,25,1.48,12.45,1.16,25,11.13,33.74,12.2,10.69,29.77,27.46,31.61,44.3,1.31,12.06,2.5,24.45.13,36.44a5,5,0,0,1,1.53,3.79c0,3.86-.11,6.56,2.5,9.53,1.14,1.3,1.22,2.41,3,3.78,1.73.73,2.71-.31,3.92-.9a17.52,17.52,0,0,0,5.35-4.51c6-6.93,10.22-15,11.07-24.19A278.36,278.36,0,0,0,269,158.79Z"/><path class="cls-2" d="M177.09,223.13c4.25,7,15.93,1.74,22,1.22,10.11-.86,19.11,3.08,28.87-2a18.19,18.19,0,0,1,3.73-1.71,22.77,22.77,0,0,1,4.05-.37A15.84,15.84,0,0,0,246,215.43c-5.39.38-10.93.74-16.08-.9-6.5-2.08-12.56-7.33-19.23-5.89-5.5,1.18-9,6.47-13.55,9.73-3.56,2.53-7.29,3.07-11.55,2.84-1.46-.07-10.81-2.23-8.64,1.65Z"/><path class="cls-2" d="M194.24,172.42a9.41,9.41,0,0,1,2.21-1.64,42.5,42.5,0,0,1,25.81-4.6,8.93,8.93,0,0,1,3.06.84,7.13,7.13,0,0,1,2,1.67c4.06,4.7,3.81,11.62,3.34,17.81a5.22,5.22,0,0,1-.3,1.62,4.81,4.81,0,0,1-1.55,1.75,32.08,32.08,0,0,1-22,6.76,12.24,12.24,0,0,1-3.12-.55,12.93,12.93,0,0,1-3-1.63,22.84,22.84,0,0,1-8-8.43C190.45,181.64,190.82,175.86,194.24,172.42Z"/></g></g></svg>