<svg xmlns="http://www.w3.org/2000/svg" viewBox="0 0 471.96 109.92"><defs><style>.cls-1{fill:none;}.cls-2{fill:#575756;}</style></defs><g id="Layer_2" data-name="Layer 2"><g id="Layer_1-2" data-name="Layer 1"><rect class="cls-1" width="471.96" height="109.92"/><path class="cls-2" d="M32.64,73.06l-9,27.56H11.84L41.74,13H55.26l29.91,87.62H73.07L63.71,73.06Zm28.73-8.84L52.79,39c-1.95-5.72-3.25-10.92-4.55-16h-.39c-1.17,5.2-2.6,10.53-4.29,15.86L35,64.22Z"/><path class="cls-2" d="M97.25,54.73c0-6.5-.26-11.83-.52-16.9h10.14l.52,10.27h.39c3.12-5.85,10.4-11.7,20.81-11.7,8.58,0,22.1,5.2,22.1,26.65v37.57H139.38V64.48c0-10.27-3.77-18.72-14.56-18.72-7.54,0-13.27,5.33-15.35,11.7a16.3,16.3,0,0,0-.91,5.33v37.83H97.25Z"/><rect class="cls-2" x="169.4" y="37.83" width="11.31" height="62.79"/><path class="cls-2" d="M274.18,62.14c-.78-12.09-1.55-26.91-1.42-37.7h-.4c-3,10.14-6.89,22-11.18,33.67L246,100.1h-9L223.09,58.37a324.75,324.75,0,0,1-10-33.93h-.39c-.39,10.79-.78,25.35-1.69,38.61l-2.34,37.57H197.87L204,13h14.43l15,42.51c3.64,10.53,6.5,20.93,8.71,30h.39a305.88,305.88,0,0,1,9.36-30.16L267.42,13h14.43l5.47,87.62H276.13Z"/><path class="cls-2" d="M349.19,85.54a105.57,105.57,0,0,0,.91,15.08H339.83l-1-7.93h-.26a23.79,23.79,0,0,1-19.24,9.36c-12.61,0-19.24-9.1-19.24-18.07,0-15.21,13.52-23.53,37.83-23.27V59.28c0-5.2-1.56-14.56-14.3-14.56A31,31,0,0,0,307.2,49.4l-2.6-7.54c5.2-3.38,12.87-5.46,20.67-5.46,19.24,0,23.92,13.13,23.92,25.74Zm-11.05-16.9c-12.48-.39-26.65,1.82-26.65,14,0,7.54,5.07,10.92,10.79,10.92a15.83,15.83,0,0,0,15.34-10.53,18.88,18.88,0,0,0,.52-3.64Z"/><path class="cls-2" d="M380.91,19.63v18.2h16.38v8.58H380.91V80.34c0,7.8,2.21,12.22,8.58,12.22a26.26,26.26,0,0,0,6.63-.78l.52,8.58c-2.21,1-5.72,1.69-10.27,1.69-5.2,0-9.62-1.82-12.35-4.81-3-3.64-4.29-9.1-4.29-16.51V46.41H360V37.83h9.75V22.62Z"/><path class="cls-2" d="M415.75,71.24c.26,15.47,10,21.84,21.58,21.84,8.19,0,13.26-1.43,17.42-3.25L456.7,98c-3.9,1.82-10.92,4-20.93,4-19.37,0-30.94-12.87-30.94-31.72,0-19.11,11.18-33.93,29.64-33.93,20.41,0,25.87,17.94,25.87,29.51a25.09,25.09,0,0,1-.52,5.33Zm33.54-8.19c.13-7.15-3-18.46-15.86-18.46-11.57,0-16.64,10.53-17.55,18.46Z"/><ellipse class="cls-2" cx="165.49" cy="20.43" rx="2.98" ry="4.55" transform="translate(18.48 99.11) rotate(-35.19)"/><ellipse class="cls-2" cx="170.23" cy="13.62" rx="3.24" ry="5.13" transform="matrix(0.96, -0.28, 0.28, 0.96, 2.82, 47.36)"/><ellipse class="cls-2" cx="183.39" cy="19.57" rx="4.54" ry="2.97" transform="translate(91.41 179.43) rotate(-66.18)"/><ellipse class="cls-2" cx="178.04" cy="13.4" rx="5.13" ry="3.24" transform="translate(106.43 176.95) rotate(-70.66)"/><path class="cls-2" d="M169.66,23.55,170,23c.87-1.27,2.77-3.36,4.46-3.38a3.7,3.7,0,0,1,1.44.37,9.49,9.49,0,0,1,2,1,10.07,10.07,0,0,1,3.23,4.58c.73,1.78,1.64,3.75.85,5.66A3.38,3.38,0,0,1,180.31,33c-1,.46-2-.15-3-.37a7,7,0,0,0-3.86.25c-2.1.79-5.75.3-6.38-2.29a3.78,3.78,0,0,1,.39-2.39A34.39,34.39,0,0,1,169.66,23.55Z"/></g></g></svg>