<svg xmlns="http://www.w3.org/2000/svg" viewBox="0 0 930.25 217.97"><defs><style>.cls-1{font-size:200px;font-family:LeelawadeeUI-Semilight, Leelawadee UI;font-weight:300;}.cls-1,.cls-3{fill:#3c3c3b;}.cls-2{letter-spacing:-0.01em;}.cls-4{fill:#fff;}</style></defs><g id="Layer_2" data-name="Layer 2"><g id="Layer_1-2" data-name="Layer 1"><text class="cls-1" transform="translate(208.53 170.02)">AniMa<tspan class="cls-2" x="555.27" y="0">t</tspan><tspan x="617.29" y="0">e</tspan></text><path class="cls-3" d="M21.83,73.53c13-15.82,25.57-33.56,44-43.28,8.41-4.44,17.39-7.65,26.39-10.68,6.33-2.13,12.86-6,16.77,1.94,2,4,2.66,8.62,3.21,13,2,16.4,3.06,34.14-5.4,48.34-1.77,3-4,5.81-4.64,9.19-1.42,7.05,4,13.49,5.76,20.46,1.37,5.54.27,11.15-1.44,16.47-1.33,4.15-2.6,9.63-8.3,8.82-3.34-.48-4.09-6.26-5.34-8.82a58.58,58.58,0,0,0-7.08-11.13c-1.61-2-5.75-5.2-5.12-8.12q-4.22,19.55-9.89,38.73c-1.65,5.56-3.52,11-5.33,16.5-1.65,5-2.55,10.57-6.42,14.45-1.77,1.77-5.42,5.39-8.14,5.27-3.53-.15-4.58-5.63-5.42-8.52-2.17-7.55-4-15.43-8.59-21.81a60.06,60.06,0,0,0-7.57-8.14L11.79,129.64C7.24,125.33.23,120.23,0,113.35a17.13,17.13,0,0,1,1.51-6.6C6.26,94.4,13.46,83.7,21.83,73.53Z"/><path class="cls-3" d="M190.5,88.54c-.76-11.3-.92-24.75-6.75-34.78-4.55-7.84-9.75-15.3-15-22.66-3.9-5.43-7.39-11.61-13.72-14.58-8.6-4-21.35-2.85-30.67-3.45h-.06c-1.52,6.94.73,15.86,1.56,22.87,1.35,11.39,1.05,22.86,10.17,30.85,11.16,9.78,27.22,25.11,28.9,40.5,1.2,11,2.28,22.35.12,33.31a4.54,4.54,0,0,1,1.39,3.47c0,3.53-.1,6,2.29,8.71,1.05,1.19,1.11,2.21,2.71,3.46,1.58.67,2.48-.28,3.58-.83a16,16,0,0,0,4.89-4.12c5.5-6.34,9.35-13.74,10.12-22.12A255.17,255.17,0,0,0,190.5,88.54Z"/><path class="cls-3" d="M106.52,147.36c3.88,6.36,14.56,1.59,20.12,1.12,9.24-.79,17.47,2.81,26.39-1.8a17.17,17.17,0,0,1,3.41-1.56,20.7,20.7,0,0,1,3.7-.34,14.46,14.46,0,0,0,9.36-4.46c-4.92.35-10,.68-14.69-.83-5.94-1.9-11.49-6.69-17.59-5.38-5,1.08-8.19,5.92-12.38,8.9-3.26,2.31-6.67,2.81-10.56,2.6-1.33-.07-9.88-2.05-7.9,1.5A2,2,0,0,0,106.52,147.36Z"/><path class="cls-3" d="M124,101a8.3,8.3,0,0,1,2-1.5,38.94,38.94,0,0,1,23.59-4.21,8.45,8.45,0,0,1,2.8.77,6.68,6.68,0,0,1,1.82,1.53c3.72,4.3,3.49,10.62,3.06,16.28a4.62,4.62,0,0,1-.28,1.48,4.44,4.44,0,0,1-1.41,1.61,29.4,29.4,0,0,1-20.15,6.18,9.64,9.64,0,0,1-5.63-2,20.78,20.78,0,0,1-7.31-7.71C120.56,109.43,120.9,104.14,124,101Z"/><path class="cls-4" d="M149.63,98.31a14.23,14.23,0,0,0-2.82-.42,10.94,10.94,0,0,0-7.61,2c1.1,2.64,4.58,3.16,7.11,3.09s5.05-.67,6.34-2.67A4.77,4.77,0,0,0,149.63,98.31Z"/><path class="cls-4" d="M148.81,54c0,1.46-2.08,2.64-3.85,2.64A2.38,2.38,0,0,1,142.43,54a3.25,3.25,0,0,1,6.38,0Z"/><path class="cls-4" d="M91.93,66.8c0,1.62-2.33,2.94-4.3,2.94A2.66,2.66,0,0,1,84.8,66.8c0-1.63,1.59-2.95,3.57-2.95S91.93,65.17,91.93,66.8Z"/><path class="cls-4" d="M95.93,68.85c1.09,2.11-.36,5-3.24,6.49s-6.07,1-7.16-1.15,3.26.61,6.1-.92C95.72,71.08,94.85,66.75,95.93,68.85Z"/><path class="cls-4" d="M152.52,55.79c1,1.94-.34,4.6-3,6s-5.58.88-6.58-1,3,.55,5.6-.85C152.32,57.83,151.53,53.86,152.52,55.79Z"/></g></g></svg>