<svg xmlns="http://www.w3.org/2000/svg" viewBox="0 0 191.07 171.7"><defs><style>.cls-1{fill:#fff;}.cls-2{fill:#3c3c3b;}</style></defs><g id="Layer_2" data-name="Layer 2"><g id="Layer_1-2" data-name="Layer 1"><path class="cls-1" d="M124.39.2c-.55-.92-12.56,1.64-14.1,1.93-3.49.66-7,1.4-10.46,2.08l0,.68-.07,2L99.63,10l-.15,4.13-.19,5-.21,5.81-.23,6.46-.25,7-.27,7.4-.28,7.68-.28,7.84-.29,7.87L97.2,77l-.27,7.56-.26,7.23-.25,6.77-.22,6.18-.2,5.47-.17,4.64-.13,3.68-.1,2.59c0,.48,0,1,0,1.44a.61.61,0,0,0,0,.14s.83,1.19.86,1.23c1,1,1.29,1.34,2.24,2.35,1.8,1.9,2.07,1.61,3.87,3.51.5.54,2.58,2.5,3.09,3,.26.28.66,1.45,1,1.47a12,12,0,0,0,1.58-.14l1.79-.16,5.06-.43,6.59-.57,7.55-.65,7.93-.69,7.75-.66,7-.61,5.69-.49,3.82-.33a5.73,5.73,0,0,0,1.37-.12l5.09-1.82V73.76Z"/><path class="cls-2" d="M21.83,60.52c13-15.82,25.57-33.56,44-43.28C74.28,12.8,83.26,9.59,92.26,6.56,98.59,4.42,105.12.59,109,8.5c2,4,2.66,8.62,3.21,13,2,16.41,3.06,34.15-5.4,48.35-1.77,3-4,5.81-4.64,9.19-1.42,7,4,13.49,5.76,20.46,1.37,5.53.27,11.15-1.44,16.47-1.33,4.15-2.6,9.63-8.3,8.82-3.34-.48-4.09-6.26-5.34-8.82a58.27,58.27,0,0,0-7.08-11.13c-1.61-2-5.75-5.21-5.12-8.12q-4.22,19.55-9.89,38.73c-1.65,5.55-3.52,11-5.33,16.5-1.65,5-2.55,10.56-6.42,14.45-1.77,1.77-5.42,5.39-8.14,5.27-3.53-.15-4.58-5.63-5.42-8.53-2.17-7.54-4-15.42-8.59-21.8a58.9,58.9,0,0,0-7.57-8.14l-17.53-16.6C7.24,112.32.23,107.22,0,100.34a17.13,17.13,0,0,1,1.51-6.6C6.26,81.38,13.46,70.69,21.83,60.52Z"/><path class="cls-2" d="M190.5,75.53c-.76-11.3-.92-24.76-6.75-34.79-4.55-7.83-9.75-15.29-15-22.65C164.81,12.65,161.32,6.48,155,3.5c-8.6-4-21.35-2.84-30.67-3.44h-.06c-1.52,7,.73,15.86,1.56,22.88,1.35,11.39,1.05,22.85,10.17,30.85,11.16,9.78,27.22,25.11,28.9,40.5,1.2,11,2.28,22.35.12,33.31a4.52,4.52,0,0,1,1.39,3.47c0,3.53-.1,6,2.29,8.71,1.05,1.19,1.11,2.21,2.71,3.45,1.58.68,2.48-.28,3.58-.82a16,16,0,0,0,4.89-4.12c5.5-6.34,9.35-13.74,10.12-22.12A255.17,255.17,0,0,0,190.5,75.53Z"/><path class="cls-2" d="M106.52,134.34c3.88,6.37,14.56,1.6,20.12,1.12,9.24-.78,17.47,2.81,26.39-1.79a17.79,17.79,0,0,1,3.41-1.57,20.7,20.7,0,0,1,3.7-.33,14.46,14.46,0,0,0,9.36-4.46c-4.92.35-10,.68-14.69-.83-5.94-1.9-11.49-6.69-17.59-5.38-5,1.08-8.19,5.92-12.38,8.89-3.26,2.32-6.67,2.81-10.56,2.61-1.33-.08-9.88-2-7.9,1.5A1.88,1.88,0,0,0,106.52,134.34Z"/><path class="cls-2" d="M124,88a8.3,8.3,0,0,1,2-1.5,38.87,38.87,0,0,1,23.59-4.21,8.45,8.45,0,0,1,2.8.77,6.68,6.68,0,0,1,1.82,1.53c3.72,4.29,3.49,10.62,3.06,16.28a4.62,4.62,0,0,1-.28,1.48,4.33,4.33,0,0,1-1.41,1.6,29.35,29.35,0,0,1-20.15,6.18,11.44,11.44,0,0,1-2.85-.5,11.82,11.82,0,0,1-2.78-1.49,20.78,20.78,0,0,1-7.31-7.71C120.56,96.42,120.9,91.13,124,88Z"/><path class="cls-1" d="M149.63,85.3a15,15,0,0,0-2.82-.43,11,11,0,0,0-7.61,2c1.1,2.64,4.58,3.16,7.11,3.09s5.05-.67,6.34-2.68A4.79,4.79,0,0,0,149.63,85.3Z"/><path class="cls-1" d="M147.23,41.66c0,1.09-1.57,2-2.9,2a1.79,1.79,0,0,1-1.9-2,2.44,2.44,0,0,1,4.8,0Z"/><path class="cls-1" d="M90.49,54.38c0,1.3-1.86,2.35-3.43,2.35a2.12,2.12,0,0,1-2.26-2.35,2.9,2.9,0,0,1,5.69,0Z"/><path class="cls-1" d="M94.07,55.78c1,1.89-.33,4.5-2.91,5.82s-5.45.87-6.43-1,2.92.55,5.48-.82C93.87,57.78,93.1,53.89,94.07,55.78Z"/><path class="cls-1" d="M150.69,43.58c.81,1.58-.27,3.75-2.42,4.85s-4.54.72-5.35-.86,2.43.46,4.56-.69C150.53,45.24,149.88,42,150.69,43.58Z"/></g></g></svg>